<svg width="32" height="32" viewBox="0 0 32 32" fill="none" xmlns="http://www.w3.org/2000/svg">
<rect width="32" height="32" fill="white"/>
<path d="M22.5781 28L20.3438 21.6562H11.6094L9.375 28H5.42188L13.9219 5.0625H18.0781L26.5625 28H22.5781ZM19.375 18.4375L17.2031 12.1875C17.1198 11.9167 17 11.5365 16.8438 11.0469C16.6875 10.5469 16.5312 10.0417 16.375 9.53125C16.2188 9.01042 16.0885 8.57292 15.9844 8.21875C15.8802 8.64583 15.75 9.125 15.5938 9.65625C15.4479 10.1771 15.3021 10.6667 15.1562 11.125C15.0208 11.5833 14.9167 11.9375 14.8438 12.1875L12.6562 18.4375H19.375Z" fill="#003A25"/>
</svg>
