<svg width="32" height="32" viewBox="0 0 32 32" fill="none" xmlns="http://www.w3.org/2000/svg">
<path d="M23.9062 28L20.7969 19.9219H11.2031L8.03125 28H6.39062L15.375 5.07812H16.8438L25.5938 28H23.9062ZM20.2812 18.4688L17.125 9.90625C17.0417 9.6875 16.9375 9.40625 16.8125 9.0625C16.6979 8.71875 16.5729 8.35417 16.4375 7.96875C16.3125 7.58333 16.1875 7.21875 16.0625 6.875C15.9583 7.23958 15.8438 7.60417 15.7188 7.96875C15.5938 8.33333 15.474 8.6875 15.3594 9.03125C15.2448 9.36458 15.1354 9.66667 15.0312 9.9375L11.75 18.4688H20.2812Z" fill="#0D0D0D"/>
<path d="M23.9062 28L22.973 28.3592L23.2196 29H23.9062V28ZM20.7969 19.9219L21.7301 19.5627L21.4835 18.9219H20.7969V19.9219ZM11.2031 19.9219V18.9219H10.5215L10.2723 19.5564L11.2031 19.9219ZM8.03125 28V29H8.71292L8.96207 28.3655L8.03125 28ZM6.39062 28L5.45959 27.6351L4.9246 29H6.39062V28ZM15.375 5.07812V4.07812H14.6929L14.444 4.7132L15.375 5.07812ZM16.8438 5.07812L17.778 4.72149L17.5324 4.07812H16.8438V5.07812ZM25.5938 28V29H27.0459L26.528 27.6434L25.5938 28ZM20.2812 18.4688V19.4688H21.7156L21.2195 18.1229L20.2812 18.4688ZM17.125 9.90625L18.0633 9.56037L18.0595 9.55025L17.125 9.90625ZM16.8125 9.0625L15.8638 9.37873L15.8681 9.39155L15.8727 9.40424L16.8125 9.0625ZM16.4375 7.96875L15.4863 8.27725L15.49 8.28879L15.494 8.30024L16.4375 7.96875ZM16.0625 6.875L17.0023 6.53326L15.9483 3.63472L15.101 6.60028L16.0625 6.875ZM15.3594 9.03125L16.3051 9.35634L16.3081 9.34748L15.3594 9.03125ZM11.75 18.4688L10.8167 18.1098L10.294 19.4688H11.75V18.4688ZM24.8395 27.6408L21.7301 19.5627L19.8636 20.2811L22.973 28.3592L24.8395 27.6408ZM20.7969 18.9219H11.2031V20.9219H20.7969V18.9219ZM10.2723 19.5564L7.10043 27.6345L8.96207 28.3655L12.1339 20.2874L10.2723 19.5564ZM8.03125 27H6.39062V29H8.03125V27ZM7.32166 28.3649L16.306 5.44305L14.444 4.7132L5.45959 27.6351L7.32166 28.3649ZM15.375 6.07812H16.8438V4.07812H15.375V6.07812ZM15.9095 5.43476L24.6595 28.3566L26.528 27.6434L17.778 4.72149L15.9095 5.43476ZM25.5938 27H23.9062V29H25.5938V27ZM21.2195 18.1229L18.0633 9.56039L16.1867 10.2521L19.343 18.8146L21.2195 18.1229ZM18.0595 9.55025C17.9787 9.33809 17.8764 9.06206 17.7523 8.72076L15.8727 9.40424C15.9986 9.75044 16.1047 10.0369 16.1905 10.2622L18.0595 9.55025ZM17.7612 8.74627C17.6447 8.39683 17.5179 8.02713 17.381 7.63726L15.494 8.30024C15.6279 8.68121 15.7511 9.04067 15.8638 9.37873L17.7612 8.74627ZM17.3887 7.66025C17.2605 7.26485 17.1317 6.88912 17.0023 6.53326L15.1227 7.21674C15.2433 7.54838 15.3645 7.90181 15.4863 8.27725L17.3887 7.66025ZM15.101 6.60028C15.0016 6.94792 14.8923 7.29597 14.7728 7.64443L16.6647 8.29307C16.7952 7.91236 16.915 7.53124 17.024 7.14972L15.101 6.60028ZM14.7728 7.64443C14.6469 8.01154 14.5262 8.36841 14.4107 8.71502L16.3081 9.34748C16.4217 9.00659 16.5406 8.65513 16.6647 8.29307L14.7728 7.64443ZM14.4137 8.70617C14.3022 9.03044 14.197 9.32098 14.0979 9.57852L15.9646 10.2965C16.0739 10.0123 16.1874 9.69872 16.3051 9.35633L14.4137 8.70617ZM14.0979 9.57852L10.8167 18.1098L12.6833 18.8277L15.9646 10.2965L14.0979 9.57852ZM11.75 19.4688H20.2812V17.4688H11.75V19.4688Z" fill="white"/>
</svg>
