<svg width="32" height="32" viewBox="0 0 32 32" fill="none" xmlns="http://www.w3.org/2000/svg">
<rect width="32" height="32" fill="#D9D9D9"/>
<path d="M23.9062 28L20.7969 19.9219H11.2031L8.03125 28H6.39062L15.375 5.07812H16.8438L25.5938 28H23.9062ZM20.2812 18.4688L17.125 9.90625C17.0417 9.6875 16.9375 9.40625 16.8125 9.0625C16.6979 8.71875 16.5729 8.35417 16.4375 7.96875C16.3125 7.58333 16.1875 7.21875 16.0625 6.875C15.9583 7.23958 15.8438 7.60417 15.7188 7.96875C15.5938 8.33333 15.474 8.6875 15.3594 9.03125C15.2448 9.36458 15.1354 9.66667 15.0312 9.9375L11.75 18.4688H20.2812Z" fill="#0D0D0D"/>
</svg>
